<svg width="200" height="32" viewBox="0 0 200 32" fill="none" xmlns="http://www.w3.org/2000/svg">
<circle opacity="0.1" cx="16" cy="16" r="16" fill="#F4F1FF"/>
<path fill-rule="evenodd" clip-rule="evenodd" d="M17.3515 22V16.6H18.9898L19.2574 14.2H17.3515V13.0311C17.3515 12.4131 17.3673 11.8 18.2303 11.8H19.1044V10.0841C19.1044 10.0583 18.3536 10 17.594 10C16.0077 10 15.0144 10.9943 15.0144 12.8201V14.2H13.2616V16.6H15.0144V22H17.3515Z" fill="#F4F1FF"/>
<circle opacity="0.1" cx="72" cy="16" r="16" fill="#F4F1FF"/>
<path fill-rule="evenodd" clip-rule="evenodd" d="M69.7442 10.0736C68.7682 10.1177 67.9222 10.3565 67.239 11.0372C66.5535 11.7215 66.3179 12.5714 66.2737 13.538C66.2463 14.1413 66.0858 18.699 66.5512 19.8942C66.865 20.7006 67.483 21.3206 68.2962 21.6356C68.6757 21.7833 69.1088 21.8833 69.7442 21.9125C75.057 22.1531 77.0264 22.0221 77.8569 19.8942C78.0043 19.5154 78.1057 19.0824 78.1337 18.4481C78.3766 13.118 78.0944 11.9627 77.1684 11.0372C76.434 10.3041 75.5701 9.80505 69.7442 10.0736ZM69.7931 20.8405C69.2114 20.8143 68.8958 20.7173 68.6852 20.6357C68.1554 20.4297 67.7575 20.0331 67.5529 19.506C67.1985 18.5978 67.316 14.2843 67.3476 13.5863C67.3787 12.9026 67.5171 12.2778 67.9991 11.7954C68.5957 11.1999 69.3665 10.908 74.6149 11.145C75.2998 11.176 75.9257 11.3142 76.4089 11.7954C77.0056 12.3909 77.3015 13.1682 77.0604 18.4001C77.0342 18.9807 76.9369 19.2958 76.8552 19.506C76.3153 20.8907 75.0731 21.0829 69.7931 20.8405ZM74.6728 12.8138C74.6728 13.208 74.9932 13.5286 75.3887 13.5286C75.7843 13.5286 76.1053 13.208 76.1053 12.8138C76.1053 12.4195 75.7843 12.0992 75.3887 12.0992C74.9932 12.0992 74.6728 12.4195 74.6728 12.8138ZM69.1404 15.9928C69.1404 17.6817 70.512 19.051 72.204 19.051C73.896 19.051 75.2676 17.6817 75.2676 15.9928C75.2676 14.3038 73.896 12.9353 72.204 12.9353C70.512 12.9353 69.1404 14.3038 69.1404 15.9928ZM70.2155 15.9928C70.2155 14.897 71.1057 14.0079 72.204 14.0079C73.3024 14.0079 74.1925 14.897 74.1925 15.9928C74.1925 17.0892 73.3024 17.9785 72.204 17.9785C71.1057 17.9785 70.2155 17.0892 70.2155 15.9928Z" fill="#F4F1FF"/>
<circle opacity="0.1" cx="128" cy="16" r="16" fill="#F4F1FF"/>
<path fill-rule="evenodd" clip-rule="evenodd" d="M133.139 21H131.141V17.5005C131.141 16.5405 130.718 16.0049 129.959 16.0049C129.133 16.0049 128.643 16.563 128.643 17.5005V21H126.644V14.5H128.643V15.231C128.643 15.231 129.27 14.1299 130.683 14.1299C132.096 14.1299 133.139 14.9931 133.139 16.7791V21ZM124.367 13.4604C123.693 13.4604 123.146 12.9095 123.146 12.23C123.146 11.551 123.693 11 124.367 11C125.04 11 125.586 11.551 125.586 12.23C125.587 12.9095 125.04 13.4604 124.367 13.4604ZM123.146 21H125.645V14.5H123.146V21Z" fill="#F4F1FF"/>
<circle opacity="0.1" cx="184" cy="16" r="16" fill="white"/>
<path fill-rule="evenodd" clip-rule="evenodd" d="M181.88 21C186.405 21 188.88 17.1522 188.88 13.8158C188.88 13.7062 188.88 13.5975 188.873 13.4892C189.354 13.1323 189.77 12.6892 190.1 12.1821C189.651 12.3864 189.175 12.5204 188.687 12.5795C189.201 12.2638 189.585 11.7679 189.769 11.1827C189.286 11.4768 188.758 11.6844 188.206 11.7958C187.275 10.7792 185.716 10.73 184.725 11.6862C184.087 12.3028 183.815 13.2221 184.014 14.099C182.036 13.9968 180.192 13.0381 178.943 11.461C178.29 12.6148 178.624 14.0902 179.705 14.8311C179.313 14.8194 178.93 14.7112 178.588 14.5155V14.5476C178.589 15.7494 179.414 16.7842 180.562 17.0223C180.2 17.1238 179.819 17.1385 179.451 17.0653C179.773 18.0942 180.697 18.7989 181.75 18.8192C180.878 19.5219 179.802 19.9035 178.694 19.9023C178.499 19.9016 178.303 19.8899 178.108 19.866C179.234 20.6068 180.543 21 181.88 20.9982" fill="#F4F1FF"/>
</svg>
